<svg xmlns="http://www.w3.org/2000/svg" width="1071" height="951">
    <path fill="#F3F3F3" fill-rule="evenodd" d="M1036.872 315.489c-23.998 85.018-48.814 174.481-79.971 252.584a761.361 761.361 0 0 1-12.386 28.859 619.453 619.453 0 0 1-13.462 27.79c-9.374 18.15-19.6 35.521-30.889 52.039-22.544 33.051-49.48 62.629-81.35 88.74-63.317 52.593-147.473 90.401-240.869 120.397-93.272 29.544-196.374 51.1-294.854 60.64-24.242 2.761-47.512 4.227-69.534 4.427a561.226 561.226 0 0 1-16.277-.088 507.064 507.064 0 0 1-15.781-.559c-10.349-.53-20.349-1.373-29.962-2.526-9.612-1.151-18.837-2.609-27.637-4.366-4.4-.878-8.694-1.831-12.878-2.857a269.458 269.458 0 0 1-12.217-3.296c-15.841-4.682-29.843-10.514-41.842-17.367-48.844-27.26-61.217-71.619-55.711-118.903 8.086-49.942 32.405-103.911 55.319-157.684a6128.844 6128.844 0 0 0 8.602-20.114c2.844-6.69 5.657-13.362 8.419-20.005 5.525-13.285 10.843-26.454 15.84-39.414 10.011-25.919 18.679-51.001 25.734-74.481 15.268-50.479 21.993-96.889 28.929-135.969.448-2.458.902-4.891 1.364-7.301.461-2.409.932-4.795 1.413-7.155a424.698 424.698 0 0 1 3.058-13.878c2.167-9.059 4.626-17.733 7.603-26.005 5.963-16.544 13.955-31.487 26.139-44.543 22.147-29.058 61.806-51.361 120.733-78.087 58.01-26.27 136.476-56.903 215.259-91.807 77.737-35.187 160.237-60.998 236.923-74.192C794.98 3.744 832.063.177 866.863.005l1.63-.005h1.626a498.978 498.978 0 0 1 9.682.105c4.275.087 8.512.23 12.708.428a420.58 420.58 0 0 1 24.664 1.874c16.086 1.717 31.437 4.374 45.831 8.125 56.937 13.987 95.895 44.233 104.985 97.119 1.335 6.495 2.202 13.343 2.653 20.514.225 3.585.347 7.251.371 10.993.024 3.743-.05 7.562-.215 11.454-.659 15.568-2.775 32.301-5.928 49.951-6.308 35.3-16.756 74.27-27.998 114.926z"/>
</svg>
