<svg xmlns="http://www.w3.org/2000/svg" width="1057" height="1215">
    <path fill="#F3F3F3" fill-rule="evenodd" d="M981.291 341.456c-41.952 101.204-77.648 218.106-92.247 336.795a1458.224 1458.224 0 0 0-5.172 44.753 1733.095 1733.095 0 0 0-3.901 44.953c-2.23 30.004-3.748 60.074-5.014 89.898-2.581 59.561-3.992 118.476-9.875 171.127-10.367 106.98-45.75 179.804-133.641 184.638-85.153 7.857-225.582-53.482-367.461-123.335-34.474-16.345-67.865-32.969-98.957-48.743-3.887-1.973-7.74-3.935-11.555-5.881a5943.359 5943.359 0 0 1-33.295-17.124 5051.328 5051.328 0 0 1-40.865-21.401c-12.905-6.838-25.069-13.367-36.457-19.599a1916.384 1916.384 0 0 1-16.504-9.133 1340.606 1340.606 0 0 1-15.34-8.722c-19.685-11.374-36.242-21.731-49.961-31.678-27.847-19.813-43.452-38.468-52.234-59.439-4.352-10.423-6.917-21.296-8.075-32.561a142.823 142.823 0 0 1-.716-12.815c-.017-1.439-.014-2.883.01-4.331.093-5.791.503-11.652 1.194-17.55 8.052-49.986 32.831-102.336 55.905-153.577 2.9-6.419 5.785-12.831 8.632-19.23a1922.635 1922.635 0 0 0 8.404-19.155c5.5-12.738 10.763-25.41 15.68-37.954 9.852-25.081 18.264-49.679 25.07-73.005 14.705-50.159 21.017-97.806 27.791-137.748.437-2.513.879-5 1.33-7.464.451-2.463.911-4.9 1.383-7.312a434.696 434.696 0 0 1 3.001-14.169c2.132-9.24 4.558-18.07 7.499-26.463 5.892-16.784 13.801-31.829 25.84-44.789 21.934-29.136 61.061-50.613 119.472-77.145 57.497-25.991 135.706-57.662 215.479-94.803 78.734-37.396 162.249-64.381 239.233-77.888C794.509 3.799 831.652.183 866.441.005c.544-.003 1.087-.004 1.629-.005l.813-.001.812.001a488.339 488.339 0 0 1 9.676.106c4.271.089 8.502.235 12.691.436a409.635 409.635 0 0 1 24.603 1.908c16.03 1.748 31.296 4.455 45.535 8.288 56.217 14.341 94.166 45.226 94.614 100.422.262 6.788-.065 13.966-.934 21.517a196.443 196.443 0 0 1-1.702 11.603 246.461 246.461 0 0 1-2.472 12.15c-3.787 16.56-9.526 34.546-16.654 53.868-14.228 38.625-34.092 82.697-53.761 131.158z"/>
</svg>
