<svg xmlns="http://www.w3.org/2000/svg" width="804" height="1047">
    <path fill="#F3F3F3" fill-rule="evenodd" d="M473.056 1.702C382.007 6.195 289.527 37.313 228.15 73.091c-63.105 36.469-100.908 78.903-128.386 123.176-27.337 44.448-43.721 91.008-58.948 139.379-14.601 48.491-28.085 98.579-35.511 153.012-1.698 13.641-3.094 27.323-4.027 41.071a561.405 561.405 0 0 0-1.033 20.674 504.749 504.749 0 0 0-.246 15.579c0 1.735.01 3.471.029 5.208.309 27.787 3.128 55.941 9.692 84.29 12.766 56.591 39.61 112.644 81.278 161.044 41.874 49.556 98.919 92.283 174.668 135.425 37.763 21.246 80.432 42.173 125.662 59.321a705.985 705.985 0 0 0 34.18 11.966c2.869.92 5.741 1.819 8.615 2.696 2.874.877 5.75 1.732 8.626 2.563a562.758 562.758 0 0 0 17.257 4.697c22.99 5.867 45.838 10.058 67.817 12.065 42.936 4.334 83.75-.433 119.451-13.037a254.496 254.496 0 0 0 13.181-5.027 254.926 254.926 0 0 0 12.711-5.667 260.978 260.978 0 0 0 23.931-13.051 269.634 269.634 0 0 0 41.372-31.331c25.051-22.594 42.987-45.906 53.895-66.423 2.712-5.149 4.963-10.148 6.725-14.982a87.303 87.303 0 0 0 2.269-7.128c.315-1.166.598-2.323.848-3.469s.468-2.281.653-3.407c.735-4.501.942-8.829.562-12.997-.381-4.169-1.348-8.177-2.953-12.036-10.402-31.166-62.398-57.315-118.416-100.513-55.511-42.18-108.469-100.642-118.959-163.339-13.908-64.962 8.261-121.855 46.797-179.85 37.515-57.623 94.268-115.554 115.488-172.724 5.503-14.257 8.852-28.57 9.806-42.85.964-14.277-.464-28.525-4.246-42.587-7.542-28.081-24.502-55.589-48.87-79.827-23.666-24.135-54.188-44.753-88.895-57.892-17.422-6.588-36.058-11.329-56.048-13.954a278.079 278.079 0 0 0-5.658-.684l-.95-.103-.951-.101a289.994 289.994 0 0 0-7.688-.688 298.516 298.516 0 0 0-15.762-.775c-10.679-.249-21.706.045-33.06.887z"/>
</svg>
