<svg xmlns="http://www.w3.org/2000/svg" width="597" height="778">
    <path fill="#2F324C" fill-rule="evenodd" d="M382.245 1.585c87.922 5.418 160.003 44.441 191.728 117.73 8.401 18.216 14.289 38.451 18.006 60.317 1.858 10.932 3.173 22.27 3.99 33.956.408 5.844.691 11.774.855 17.786.082 3.005.134 6.031.157 9.076.023 3.045.017 6.109-.018 9.191-.555 49.338-8.406 103.283-20.769 158.833-26.647 111.156-56.396 209.809-105.477 277.746-25.143 33.813-56.588 59.159-96.701 73.946-19.851 7.455-41.903 12.357-65.296 15.009-11.697 1.327-23.732 2.098-35.997 2.352a450.245 450.245 0 0 1-23.242-.121 487.314 487.314 0 0 1-14.136-.639c-50.364-3.353-97.108-12.841-130.92-32.837-34.422-19.854-55.414-51.479-69.116-93.981-13.731-42.3-20.384-94.908-26.695-152.035-2.838-28.527-5.581-58.207-7.175-88.063C.642 394.925.131 379.957.035 365.078a780.53 780.53 0 0 1 .007-11.141c.03-3.706.088-7.405.176-11.094.175-7.379.47-14.719.9-22.003 3.563-118.312 62.31-197.629 137.426-248.212 37.298-25.353 77.827-43.756 118.062-56.077 20.29-6.065 40.507-10.634 61.248-13.263a322.327 322.327 0 0 1 39.648-2.57 324.632 324.632 0 0 1 8.154.08c5.466.122 10.992.382 16.589.787z"/>
</svg>
