<svg xmlns="http://www.w3.org/2000/svg" width="709" height="594">
    <path fill="#D7D7D7" fill-rule="evenodd" d="M335.298 1.995A1316.23 1316.23 0 0 1 384.022.881a1187.008 1187.008 0 0 1 17.862.064c1.968.023 3.93.051 5.885.085a917.11 917.11 0 0 1 23.132.677c30.364 1.305 58.685 4.131 83.349 10.031 50.028 11.197 85.104 35.972 109.419 73.766 45.825 76.938 61.501 196.003 79.452 298.361 3.188 25.701 5.365 49.792 5.738 71.677.099 5.47.093 10.802-.019 15.984a367.038 367.038 0 0 1-.248 7.66 327.873 327.873 0 0 1-.403 7.428c-.641 9.745-1.693 18.849-3.113 27.226-5.996 33.797-14.777 55.619-31.509 67.242-16.852 11.544-46.376 13.348-101.396 12.346-27.205-.472-60.283-1.533-97.429-2.293a5206.31 5206.31 0 0 0-58.139-.893 4937.27 4937.27 0 0 0-30.462-.196 5144.626 5144.626 0 0 0-30.943-.011c-85.733.303-160.014.8-214.812-12.561-55.334-12.608-91.184-39.075-112.417-75.277C5.034 466.329-.692 425.109.757 386.364c1.378-39.171 9.931-75.867 13.918-112.527 3.301-18.063 6.268-35.714 9.492-52.745 3.22-17.032 6.644-33.501 10.706-49.28 8.213-31.611 18.035-61.376 36.872-87.316 18.732-25.951 47.749-46.589 92.684-59.812C208.743 11.276 269.42 5.405 335.298 1.995z"/>
</svg>
