<svg xmlns="http://www.w3.org/2000/svg" width="712" height="1027">
    <path fill="#F3F3F3" fill-rule="evenodd" d="M509.652 5.047c-89.837 12.764-183.281 50.885-248.876 93.566-67.312 43.325-111.09 92.186-143.04 142.903C85.78 292.412 66.03 345.347 47.893 400.487 30.44 455.725 14.591 513.016 6.075 575.268c-1.955 15.582-3.553 31.21-4.619 46.887a641.807 641.807 0 0 0-1.178 23.546 572.222 572.222 0 0 0-.279 17.694c0 1.968.011 3.935.033 5.903.354 31.464 3.54 63.08 11.016 93.9 14.378 61.711 45.758 118.029 92.42 157.147 46.6 40.516 108.298 65.49 178.825 84.817 35.221 9.373 72.732 16.81 110.718 20.102 18.975 1.633 38.037 2.185 56.794 1.329 18.754-.848 37.199-3.115 54.872-6.974 34.434-7.186 67.064-21.347 94.709-40.134a258.494 258.494 0 0 0 5.137-3.565 267.851 267.851 0 0 0 14.722-11.262 269.912 269.912 0 0 0 17.946-16.141 271.477 271.477 0 0 0 29.836-34.776c17.483-23.917 28.955-46.871 36.04-66.463 1.76-4.909 3.23-9.622 4.412-14.121.591-2.25 1.109-4.447 1.554-6.59.223-1.072.427-2.129.613-3.173.186-1.045.353-2.075.502-3.092 1.188-8.134 1.195-15.378-.151-21.74-4.171-26.144-29.76-41.834-60.367-72.957-30.071-30.297-62.432-77.051-68.916-136.821-8.636-61.387 5.494-122.129 29.837-186.81 23.795-64.157 59.212-132.24 79.062-193.44 5.049-15.287 9.125-30.248 11.977-44.73 2.852-14.482 4.481-28.488 4.638-41.86.293-26.721-5.189-51.012-18.997-70.938-13.165-19.945-34.728-35.438-64.557-43.865C607.762 2.925 590.767.48 571.836.063a279.18 279.18 0 0 0-5.374-.065h-.905l-.908.003c-2.425.011-4.88.054-7.363.129-4.966.151-10.048.431-15.238.843-10.381.823-21.2 2.175-32.396 4.074z"/>
</svg>
