<svg xmlns="http://www.w3.org/2000/svg" width="242" height="477">
    <path fill="#F3F3F3" fill-rule="evenodd" d="M67.051.374c23.424-1.55 45.874 9.123 62.811 30.528 17.216 21.185 28.361 50.01 36.112 77.941 7.841 28.247 12.545 55.892 18.852 83.284 6.113 27.4 13.87 54.623 23.668 81.919 2.391 6.816 4.901 13.556 7.461 20.219 1.279 3.331 2.57 6.643 3.861 9.937l1.933 4.925.964 2.453.959 2.445c5.089 13.023 10.008 25.753 13.422 38.232 7.145 24.835 7.357 48.882-5.658 68.965-12.272 20.63-37.972 36.188-65.161 45.523-13.564 4.674-27.352 7.814-40.139 9.291-6.401.737-12.566 1.058-18.412.94-5.847-.119-11.375-.676-16.545-1.698-20.255-4.11-35.649-13.886-46.134-28.169-10.561-14.273-16.446-33.082-18.487-54.903-2.126-21.812-.189-46.598 2.873-72.617 2.938-26.008 6.93-53.306 5.989-79.939-.542-27.679-5.306-50.455-12.228-74.851-6.699-23.992-15.933-50.061-20.303-75.432C1.785 83.086 1.006 76.876.652 70.878.297 64.879.368 59.093.958 53.647c1.17-10.913 4.46-20.377 10.328-27.984 5.648-7.647 13.829-13.569 23.439-17.97A84.018 84.018 0 0 1 52.16 1.969a73.266 73.266 0 0 1 2.067-.404 74.84 74.84 0 0 1 4.198-.644 69.553 69.553 0 0 1 8.626-.547z"/>
</svg>
