<svg xmlns="http://www.w3.org/2000/svg" width="1290" height="735">
    <path fill="#2F324C" fill-rule="evenodd" d="M1289.363 292.736c.333 9.865.552 19.596.612 29.166a812.61 812.61 0 0 1-.036 14.231 650.923 650.923 0 0 1-.313 13.97c-.616 18.443-2.064 36.135-4.736 52.897-5.345 33.525-15.593 63.341-33.935 88.152a157.326 157.326 0 0 1-15.363 17.832c-5.65 5.654-11.841 11.015-18.591 16.092-13.493 10.155-29.24 19.156-47.183 27.151-35.825 16.022-80.627 27.898-131.321 38.238-101.679 20.268-224.129 37.506-343.123 64.537-119.57 25.661-239.824 58.526-355.768 72.794-28.53 3.844-55.855 6.015-81.595 6.357-3.217.043-6.409.058-9.575.045a504.113 504.113 0 0 1-9.421-.125 478.886 478.886 0 0 1-18.354-.758c-12.012-.732-23.568-1.916-34.61-3.536-11.042-1.618-21.569-3.67-31.533-6.12a289.793 289.793 0 0 1-14.519-3.966 260.373 260.373 0 0 1-13.647-4.528c-17.609-6.391-32.798-14.179-45.509-22.897-25.91-17.503-40.656-38.4-48.851-60.567-4.095-11.115-6.552-22.619-7.902-34.47a200.447 200.447 0 0 1-.811-8.954c-.103-1.503-.19-3.012-.263-4.526a244.18 244.18 0 0 1-.176-4.558c-.179-6.098-.14-12.281.061-18.541.523-6.52 1.145-13.2 1.825-20.023.681-6.822 1.42-13.787 2.179-20.877 1.521-14.181 3.122-28.861 4.542-43.917 2.852-30.114 4.951-61.733 4.667-93.994a904.456 904.456 0 0 0-.356-23.998 947.305 947.305 0 0 0-.972-23.836c-.842-15.797-2.063-31.361-3.544-46.472-2.964-30.24-6.955-58.604-10.875-83.894C11.784 149.126 1.804 105.802.493 74.675a165.999 165.999 0 0 1-.148-5.768c-.015-1.881.006-3.721.066-5.52.118-3.598.39-7.034.834-10.311.888-6.555 2.465-12.482 4.91-17.797 4.912-10.617 13.206-18.83 26.962-24.388 6.422-3.065 14.234-5.523 23.625-7.274 4.696-.875 9.787-1.575 15.298-2.087 2.755-.257 5.615-.466 8.584-.628a259.266 259.266 0 0 1 6.863-.283c.783-.022 1.573-.042 2.37-.058 25.508-.523 58.118 2.108 99.628 8.323 81.014 11.822 203.897 41.613 331.436 73.864 126.481 32.456 248.372 57.728 347.478 53.159 50.029-1.581 95.549-9.118 137.173-19.344l1.948-.479 1.942-.482a908.507 908.507 0 0 0 11.534-2.964c5.08-1.341 10.1-2.712 15.059-4.104 9.918-2.782 19.595-5.65 29.028-8.526 18.865-5.749 36.765-11.54 53.613-16.685 66.82-21.241 112.691-29.362 136.13 12.26 3.152 4.875 5.961 10.44 8.494 16.606a159.774 159.774 0 0 1 3.598 9.686 213.98 213.98 0 0 1 3.228 10.507c4.068 14.522 7.27 31.023 9.879 48.582 5.196 35.198 8.035 74.232 9.338 111.772z"/>
</svg>
