<svg xmlns="http://www.w3.org/2000/svg" width="441" height="447">
    <path fill="#2F324C" fill-rule="evenodd" d="M423.034 156.243c1.716 7.527 3.384 15.05 4.961 22.516a1073.457 1073.457 0 0 1 2.293 11.149 843.401 843.401 0 0 1 2.126 11.025c2.712 14.602 4.894 28.764 6.24 42.131 2.733 26.766 1.953 50.243-3.585 68.668-1.379 4.637-3.042 8.984-4.984 13.042a76.564 76.564 0 0 1-6.641 11.318c-4.955 6.982-10.958 12.84-17.758 17.762-13.604 9.862-30.333 15.937-47.896 20.767-35.625 9.257-72.382 16.095-108.831 30.207-36.493 13.205-77.105 31.288-128.031 38.612-12.46 2.009-24.835 3.087-36.507 3.203-1.459.015-2.907.016-4.342 0a198.88 198.88 0 0 1-4.267-.088 187.636 187.636 0 0 1-8.28-.439c-5.398-.408-10.537-1.046-15.346-1.899-4.81-.851-9.29-1.916-13.39-3.172a85.886 85.886 0 0 1-5.863-2.022 69.458 69.458 0 0 1-5.272-2.289c-6.634-3.219-11.613-7.09-14.995-11.402-7.037-8.653-7.056-18.929-3.905-30.206 1.579-5.654 3.956-11.593 6.702-17.834.687-1.56 1.397-3.14 2.124-4.739a1106.203 1106.203 0 0 1 2.228-4.854c1.511-3.275 3.067-6.627 4.622-10.056a268.923 268.923 0 0 0 5.231-11.124 220.614 220.614 0 0 0 4.819-11.811c3.029-8.094 5.627-16.617 7.599-25.502 3.974-17.765 5.349-36.996 3.785-56.998a263.189 263.189 0 0 0-1.513-14.96 315.301 315.301 0 0 0-2.315-14.986c-1.778-9.969-3.992-19.863-6.413-29.514-4.858-19.314-10.466-37.603-15.355-53.927C9.483 103.602 1.285 75.746.158 55.59a97.95 97.95 0 0 1-.162-3.744 83.024 83.024 0 0 1-.01-3.594c.045-2.346.194-4.594.452-6.748.515-4.31 1.463-8.247 2.889-11.84 2.866-7.18 7.598-13.009 14.924-17.455 3.447-2.376 7.563-4.442 12.407-6.137a76.542 76.542 0 0 1 7.821-2.255 95.084 95.084 0 0 1 6.613-1.3 119.355 119.355 0 0 1 2.351-.355C60.174.376 76.127.314 95.78 2.395c38.31 3.754 94.537 18.747 140.012 35.774C281.23 55.3 313.366 68.171 336.567 62.527c11.644-2.371 21.14-8.431 28.498-15.836l.343-.347a55.2 55.2 0 0 0 1.011-1.05 75.784 75.784 0 0 0 3.763-4.309 83.883 83.883 0 0 0 4.329-5.858c2.629-3.892 4.744-7.687 6.429-10.994 6.798-13.227 5.833-18.418 10.582 2.297.591 2.507 1.274 5.444 2.065 8.81.396 1.683.818 3.474 1.268 5.37.451 1.896.929 3.898 1.435 6.004 2.021 8.416 4.509 18.517 7.362 29.95 5.689 22.845 12.831 50.987 19.382 79.679z"/>
</svg>
