<svg xmlns="http://www.w3.org/2000/svg" width="703" height="1026">
    <path fill="#F3F3F3" fill-rule="evenodd" d="M266.97 9.261c103.514 17.357 190.768 59.946 244.17 107.081 55.059 47.734 83.726 99.531 105.48 150.441 21.384 51.198 34.426 101.973 47.853 154.296 12.792 52.295 25.897 105.976 33.228 162.283 1.675 14.071 3.071 28.098 4.009 42.07.469 6.986.824 13.959 1.042 20.916a511.558 511.558 0 0 1 .248 15.628c0 1.733-.01 3.466-.029 5.197-.315 27.704-3.19 55.148-10.03 82.229-13.098 53.926-42.146 106.437-83.54 150.48-41.235 45.191-94.577 80.056-150.6 101.56-28.012 10.753-56.697 18.168-84.87 21.864-14.087 1.848-28.046 2.767-41.729 2.708-13.682-.059-27.089-1.095-40.071-3.156-50.775-8.292-97.169-29.228-130.174-59.54-33.394-30.314-53.399-69.992-60.421-115.858-7.399-45.863-1.862-97.943 7.251-153.024 8.673-55.074 21.253-113.134 18.008-170.752-1.977-59.853-18.136-110.277-42.395-165.076-23.483-53.96-55.935-112.822-72.729-170.493-4.236-14.304-7.437-28.511-9.238-42.338-1.8-13.828-2.2-27.277-.786-40.049 2.835-25.544 12.912-48.375 33.974-66.05 20.217-17.76 51.691-30.352 91.833-35.98C147.486.882 169.614-.197 193.141.666a456.815 456.815 0 0 1 17.886 1.014c6.04.461 12.152 1.046 18.323 1.759a496.427 496.427 0 0 1 37.62 5.822z"/>
</svg>
