<svg xmlns="http://www.w3.org/2000/svg" width="356" height="599">
    <path fill="#F3F3F3" fill-rule="evenodd" d="M255.184 2.943c-44.982 7.446-91.769 29.679-124.613 54.573-33.703 25.27-55.623 53.768-71.62 83.349-16 29.685-25.89 60.559-34.971 92.72-8.739 32.217-16.674 65.633-20.938 101.941-.979 9.089-1.779 18.204-2.313 27.347-.267 4.572-.467 9.15-.59 13.733A394.183 394.183 0 0 0 0 386.927c0 1.147.005 2.295.016 3.443.177 18.351 1.773 36.791 5.516 54.767 7.199 35.993 22.911 68.841 46.274 91.656 23.333 23.631 54.226 38.197 89.539 49.47 17.635 5.467 36.417 9.805 55.437 11.725 9.501.952 19.045 1.274 28.437.775 9.39-.495 18.625-1.818 27.474-4.068 17.242-4.191 33.579-12.45 47.422-23.408a132.59 132.59 0 0 0 5.087-4.216 139.25 139.25 0 0 0 4.856-4.432 145.143 145.143 0 0 0 8.986-9.414c5.66-6.486 10.646-13.344 14.939-20.284 8.754-13.949 14.498-27.337 18.045-38.764a111.427 111.427 0 0 0 2.209-8.237 86.49 86.49 0 0 0 .778-3.843 72.769 72.769 0 0 0 .558-3.654c.595-4.744.599-8.969-.075-12.68-2.089-15.248-14.901-24.399-30.226-42.553-15.057-17.67-31.26-44.94-34.507-79.801-4.324-35.803 2.751-71.231 14.94-108.957 11.914-37.42 29.648-77.129 39.587-112.824 2.527-8.916 4.568-17.642 5.996-26.089 1.428-8.447 2.244-16.616 2.323-24.415.146-15.585-2.598-29.753-9.512-41.374-6.592-11.633-17.389-20.67-32.324-25.585C304.308 1.706 295.799.28 286.32.037a116.608 116.608 0 0 0-2.691-.038h-.453l-.454.001a124.56 124.56 0 0 0-3.687.076c-2.487.088-5.031.251-7.63.491-5.197.481-10.615 1.27-16.221 2.376z"/>
</svg>
